<svg width="24" height="25" viewBox="0 0 24 25" fill="none" xmlns="http://www.w3.org/2000/svg">
<path fill-rule="evenodd" clip-rule="evenodd" d="M3 4.27734C3 3.72506 3.44772 3.27734 4 3.27734H10C10.5523 3.27734 11 3.72506 11 4.27734V10.2773C11 10.8296 10.5523 11.2773 10 11.2773H4C3.44772 11.2773 3 10.8296 3 10.2773V4.27734ZM5 5.27734V9.27734H9V5.27734H5Z" fill="url(#paint0_linear_138_134)"/>
<path fill-rule="evenodd" clip-rule="evenodd" d="M13 4.27734C13 3.72506 13.4477 3.27734 14 3.27734H20C20.5523 3.27734 21 3.72506 21 4.27734V10.2773C21 10.8296 20.5523 11.2773 20 11.2773H14C13.4477 11.2773 13 10.8296 13 10.2773V4.27734ZM15 5.27734V9.27734H19V5.27734H15Z" fill="url(#paint1_linear_138_134)"/>
<path fill-rule="evenodd" clip-rule="evenodd" d="M3 14.2773C3 13.7251 3.44772 13.2773 4 13.2773H10C10.5523 13.2773 11 13.7251 11 14.2773V20.2773C11 20.8296 10.5523 21.2773 10 21.2773H4C3.44772 21.2773 3 20.8296 3 20.2773V14.2773ZM5 15.2773V19.2773H9V15.2773H5Z" fill="url(#paint2_linear_138_134)"/>
<path fill-rule="evenodd" clip-rule="evenodd" d="M14.1716 14.4489C14.9217 13.6988 15.9391 13.2773 17 13.2773C18.0609 13.2773 19.0783 13.6988 19.8284 14.4489C20.5786 15.1991 21 16.2165 21 17.2773C21 18.3382 20.5786 19.3556 19.8284 20.1058C19.0783 20.8559 18.0609 21.2773 17 21.2773C15.9391 21.2773 14.9217 20.8559 14.1716 20.1058C13.4214 19.3556 13 18.3382 13 17.2773C13 16.2165 13.4214 15.1991 14.1716 14.4489ZM17 15.2773C16.4696 15.2773 15.9609 15.4881 15.5858 15.8631C15.2107 16.2382 15 16.7469 15 17.2773C15 17.8078 15.2107 18.3165 15.5858 18.6916C15.9609 19.0666 16.4696 19.2773 17 19.2773C17.5304 19.2773 18.0391 19.0666 18.4142 18.6916C18.7893 18.3165 19 17.8078 19 17.2773C19 16.7469 18.7893 16.2382 18.4142 15.8631C18.0391 15.4881 17.5304 15.2773 17 15.2773Z" fill="#2592F6"/>
<defs>
<linearGradient id="paint0_linear_138_134" x1="7" y1="3.27734" x2="7" y2="11.2773" gradientUnits="userSpaceOnUse">
<stop stop-color="#2592F6"/>
<stop offset="1" stop-color="#F38F70"/>
</linearGradient>
<linearGradient id="paint1_linear_138_134" x1="17" y1="3.27734" x2="17" y2="11.2773" gradientUnits="userSpaceOnUse">
<stop stop-color="#2592F6"/>
<stop offset="1" stop-color="#F38F70"/>
</linearGradient>
<linearGradient id="paint2_linear_138_134" x1="7" y1="13.2773" x2="7" y2="21.2773" gradientUnits="userSpaceOnUse">
<stop stop-color="#2592F6"/>
<stop offset="1" stop-color="#F38F70"/>
</linearGradient>
</defs>
</svg>
