<svg width="24" height="25" viewBox="0 0 24 25" fill="none" xmlns="http://www.w3.org/2000/svg">
<path fill-rule="evenodd" clip-rule="evenodd" d="M8.17317 3.03855C9.38642 2.536 10.6868 2.27734 12 2.27734C13.3132 2.27734 14.6136 2.536 15.8268 3.03855C17.0401 3.5411 18.1425 4.27769 19.0711 5.20628C19.9997 6.13486 20.7362 7.23725 21.2388 8.45051C21.7413 9.66377 22 10.9641 22 12.2773C22 13.5906 21.7413 14.8909 21.2388 16.1042C20.7362 17.3174 19.9997 18.4198 19.0711 19.3484C18.1425 20.277 17.0401 21.0136 15.8268 21.5161C14.6136 22.0187 13.3132 22.2773 12 22.2773C10.6868 22.2773 9.38642 22.0187 8.17317 21.5161C6.95991 21.0136 5.85752 20.277 4.92893 19.3484C4.00035 18.4198 3.26375 17.3174 2.7612 16.1042C2.25866 14.8909 2 13.5906 2 12.2773C2 10.9641 2.25866 9.66377 2.7612 8.45051C3.26375 7.23725 4.00035 6.13486 4.92893 5.20628C5.85752 4.27769 6.95991 3.5411 8.17317 3.03855ZM12 4.27734C10.9494 4.27734 9.90914 4.48427 8.93853 4.88631C7.96793 5.28835 7.08601 5.87762 6.34315 6.62049C5.60028 7.36336 5.011 8.24527 4.60896 9.21588C4.20693 10.1865 4 11.2268 4 12.2773C4 13.3279 4.20693 14.3682 4.60896 15.3388C5.011 16.3094 5.60028 17.1913 6.34315 17.9342C7.08601 18.6771 7.96793 19.2663 8.93853 19.6684C9.90914 20.0704 10.9494 20.2773 12 20.2773C13.0506 20.2773 14.0909 20.0704 15.0615 19.6684C16.0321 19.2663 16.914 18.6771 17.6569 17.9342C18.3997 17.1913 18.989 16.3094 19.391 15.3388C19.7931 14.3682 20 13.3279 20 12.2773C20 11.2268 19.7931 10.1865 19.391 9.21588C18.989 8.24527 18.3997 7.36336 17.6569 6.62049C16.914 5.87762 16.0321 5.28835 15.0615 4.88631C14.0909 4.48427 13.0506 4.27734 12 4.27734Z" fill="url(#paint0_linear_138_122)"/>
<path fill-rule="evenodd" clip-rule="evenodd" d="M10.5858 10.8631C10.9609 10.4881 11.4696 10.2773 12 10.2773C12.5304 10.2773 13.0391 10.4881 13.4142 10.8631C13.7893 11.2382 14 11.7469 14 12.2773C14 12.8078 13.7893 13.3165 13.4142 13.6916C13.0391 14.0666 12.5304 14.2773 12 14.2773C11.4696 14.2773 10.9609 14.0666 10.5858 13.6916C10.2107 13.3165 10 12.8078 10 12.2773C10 11.7469 10.2107 11.2382 10.5858 10.8631Z" fill="#2592F7"/>
<path fill-rule="evenodd" clip-rule="evenodd" d="M16.7071 7.57024C17.0976 7.96076 17.0976 8.59393 16.7071 8.98445L14.1171 11.5745C13.7266 11.965 13.0934 11.965 12.7029 11.5745C12.3123 11.1839 12.3123 10.5508 12.7029 10.1602L15.2929 7.57024C15.6834 7.17971 16.3166 7.17971 16.7071 7.57024Z" fill="#2592F7"/>
<path fill-rule="evenodd" clip-rule="evenodd" d="M12 8.27734C10.9391 8.27734 9.92172 8.69877 9.17157 9.44892C8.42143 10.1991 8 11.2165 8 12.2773C8 12.8296 7.55228 13.2773 7 13.2773C6.44772 13.2773 6 12.8296 6 12.2773C6 10.686 6.63214 9.15992 7.75736 8.0347C8.88258 6.90948 10.4087 6.27734 12 6.27734C12.5523 6.27734 13 6.72506 13 7.27734C13 7.82963 12.5523 8.27734 12 8.27734Z" fill="#2592F7"/>
<defs>
<linearGradient id="paint0_linear_138_122" x1="12" y1="3.27734" x2="12" y2="21.2773" gradientUnits="userSpaceOnUse">
<stop stop-color="#5671FF"/>
<stop offset="1" stop-color="#F38F70"/>
<stop offset="1" stop-color="#F38F70"/>
</linearGradient>
</defs>
</svg>
