<svg width="200" height="115" viewBox="0 0 200 115" fill="none" xmlns="http://www.w3.org/2000/svg">
<g clip-path="url(#clip0_713_2423)">
<rect width="200" height="115" fill="#2592F6"/>
<path d="M88.1579 20C86.7045 20 85.5263 21.1782 85.5263 22.6316V49.9343C85.5263 51.3877 86.7045 52.5659 88.1579 52.5659C89.6113 52.5659 90.7895 51.3877 90.7895 49.9343L90.7895 42.6973H104.934V67.3684C104.934 68.8218 106.113 70 107.566 70C109.019 70 110.197 68.8218 110.197 67.3684V40.0657C110.197 38.6123 109.019 37.4341 107.566 37.4341L107.554 37.4342L90.7895 37.4342L90.7895 22.6316C90.7895 21.1782 89.6113 20 88.1579 20Z" fill="white"/>
<path d="M105.263 26.7432C105.263 28.1058 106.368 29.2103 107.73 29.2103C109.093 29.2103 110.197 28.1058 110.197 26.7432C110.197 25.3807 109.093 24.2761 107.73 24.2761C106.368 24.2761 105.263 25.3807 105.263 26.7432Z" fill="white"/>
<path fill-rule="evenodd" clip-rule="evenodd" d="M107.73 33.4869C111.455 33.4869 114.474 30.4677 114.474 26.7434C114.474 23.0191 111.455 20 107.73 20C104.006 20 100.987 23.0191 100.987 26.7434C100.987 30.4677 104.006 33.4869 107.73 33.4869ZM107.73 31.8421C110.546 31.8421 112.829 29.5594 112.829 26.7434C112.829 23.9275 110.546 21.6447 107.73 21.6447C104.914 21.6447 102.632 23.9275 102.632 26.7434C102.632 29.5594 104.914 31.8421 107.73 31.8421Z" fill="white"/>
<path d="M71.386 80.214V90H70.406V85.422H65.1V90H64.12V80.214H65.1V84.61H70.406V80.214H71.386ZM76.112 80.914C75.916 80.914 75.748 80.844 75.608 80.704C75.468 80.564 75.398 80.3913 75.398 80.186C75.398 79.9807 75.468 79.8127 75.608 79.682C75.748 79.542 75.916 79.472 76.112 79.472C76.308 79.472 76.476 79.542 76.616 79.682C76.756 79.8127 76.826 79.9807 76.826 80.186C76.826 80.3913 76.756 80.564 76.616 80.704C76.476 80.844 76.308 80.914 76.112 80.914ZM76.602 82.356V90H75.622V82.356H76.602ZM80.3732 86.164C80.3732 85.38 80.5272 84.694 80.8352 84.106C81.1525 83.5087 81.5865 83.0513 82.1372 82.734C82.6972 82.4073 83.3272 82.244 84.0272 82.244C84.7552 82.244 85.3805 82.412 85.9032 82.748C86.4352 83.084 86.8178 83.5133 87.0512 84.036V82.356H88.0312V90H87.0512V88.306C86.8085 88.8287 86.4212 89.2627 85.8892 89.608C85.3665 89.944 84.7412 90.112 84.0132 90.112C83.3225 90.112 82.6972 89.9487 82.1372 89.622C81.5865 89.2953 81.1525 88.8333 80.8352 88.236C80.5272 87.6387 80.3732 86.948 80.3732 86.164ZM87.0512 86.178C87.0512 85.562 86.9252 85.0207 86.6732 84.554C86.4212 84.0873 86.0758 83.728 85.6372 83.476C85.2078 83.224 84.7318 83.098 84.2092 83.098C83.6678 83.098 83.1825 83.2193 82.7532 83.462C82.3238 83.7047 81.9832 84.0593 81.7312 84.526C81.4885 84.9833 81.3672 85.5293 81.3672 86.164C81.3672 86.7893 81.4885 87.34 81.7312 87.816C81.9832 88.2827 82.3238 88.642 82.7532 88.894C83.1825 89.1367 83.6678 89.258 84.2092 89.258C84.7318 89.258 85.2078 89.132 85.6372 88.88C86.0758 88.628 86.4212 88.2687 86.6732 87.802C86.9252 87.3353 87.0512 86.794 87.0512 86.178ZM95.8524 82.216C96.7671 82.216 97.5138 82.5007 98.0924 83.07C98.6711 83.63 98.9604 84.4467 98.9604 85.52V90H97.9944V85.632C97.9944 84.8013 97.7844 84.1667 97.3644 83.728C96.9538 83.2893 96.3891 83.07 95.6704 83.07C94.9331 83.07 94.3451 83.3033 93.9064 83.77C93.4678 84.2367 93.2484 84.9227 93.2484 85.828V90H92.2684V82.356H93.2484V83.658C93.4911 83.1913 93.8411 82.8367 94.2984 82.594C94.7558 82.342 95.2738 82.216 95.8524 82.216ZM102.68 86.164C102.68 85.38 102.834 84.694 103.142 84.106C103.459 83.5087 103.893 83.0513 104.444 82.734C105.004 82.4073 105.634 82.244 106.334 82.244C107.062 82.244 107.687 82.412 108.21 82.748C108.742 83.084 109.124 83.5133 109.358 84.036V82.356H110.338V90H109.358V88.306C109.115 88.8287 108.728 89.2627 108.196 89.608C107.673 89.944 107.048 90.112 106.32 90.112C105.629 90.112 105.004 89.9487 104.444 89.622C103.893 89.2953 103.459 88.8333 103.142 88.236C102.834 87.6387 102.68 86.948 102.68 86.164ZM109.358 86.178C109.358 85.562 109.232 85.0207 108.98 84.554C108.728 84.0873 108.382 83.728 107.944 83.476C107.514 83.224 107.038 83.098 106.516 83.098C105.974 83.098 105.489 83.2193 105.06 83.462C104.63 83.7047 104.29 84.0593 104.038 84.526C103.795 84.9833 103.674 85.5293 103.674 86.164C103.674 86.7893 103.795 87.34 104.038 87.816C104.29 88.2827 104.63 88.642 105.06 88.894C105.489 89.1367 105.974 89.258 106.516 89.258C107.038 89.258 107.514 89.132 107.944 88.88C108.382 88.628 108.728 88.2687 108.98 87.802C109.232 87.3353 109.358 86.794 109.358 86.178ZM115.849 83.182V87.928C115.849 88.3947 115.938 88.7167 116.115 88.894C116.292 89.0713 116.605 89.16 117.053 89.16H117.949V90H116.899C116.208 90 115.695 89.8413 115.359 89.524C115.023 89.1973 114.855 88.6653 114.855 87.928V83.182H113.791V82.356H114.855V80.438H115.849V82.356H117.949V83.182H115.849ZM122.545 83.714C122.76 83.238 123.087 82.8693 123.525 82.608C123.973 82.3467 124.519 82.216 125.163 82.216V83.238H124.897C124.188 83.238 123.619 83.4293 123.189 83.812C122.76 84.1947 122.545 84.834 122.545 85.73V90H121.565V82.356H122.545V83.714ZM128.19 86.164C128.19 85.38 128.344 84.694 128.652 84.106C128.969 83.5087 129.403 83.0513 129.954 82.734C130.514 82.4073 131.144 82.244 131.844 82.244C132.572 82.244 133.197 82.412 133.72 82.748C134.252 83.084 134.634 83.5133 134.868 84.036V82.356H135.848V90H134.868V88.306C134.625 88.8287 134.238 89.2627 133.706 89.608C133.183 89.944 132.558 90.112 131.83 90.112C131.139 90.112 130.514 89.9487 129.954 89.622C129.403 89.2953 128.969 88.8333 128.652 88.236C128.344 87.6387 128.19 86.948 128.19 86.164ZM134.868 86.178C134.868 85.562 134.742 85.0207 134.49 84.554C134.238 84.0873 133.892 83.728 133.454 83.476C133.024 83.224 132.548 83.098 132.026 83.098C131.484 83.098 130.999 83.2193 130.57 83.462C130.14 83.7047 129.8 84.0593 129.548 84.526C129.305 84.9833 129.184 85.5293 129.184 86.164C129.184 86.7893 129.305 87.34 129.548 87.816C129.8 88.2827 130.14 88.642 130.57 88.894C130.999 89.1367 131.484 89.258 132.026 89.258C132.548 89.258 133.024 89.132 133.454 88.88C133.892 88.628 134.238 88.2687 134.49 87.802C134.742 87.3353 134.868 86.794 134.868 86.178Z" fill="white"/>
<path opacity="0.1" d="M46.4873 97.0281C-12.7592 80.0282 -40.9231 151.416 -47.5993 189.235L268.985 117.72C264.777 78.3833 251.622 1.05521 232.66 6.43463C208.959 13.1589 194.308 24.9955 179.826 67.0787C165.344 109.162 120.545 118.278 46.4873 97.0281Z" fill="white"/>
<path opacity="0.1" d="M48.799 70.4146C-5.95306 37.3181 -42.8942 116.561 -54.5208 160.32L260.343 143.136C261.692 95.2165 259.636 -0.0384577 240.627 2.30075C216.866 5.22475 201.124 16.2109 181.39 63.3822C161.657 110.553 117.239 111.785 48.799 70.4146Z" fill="white"/>
</g>
<defs>
<clipPath id="clip0_713_2423">
<rect width="200" height="115" fill="white"/>
</clipPath>
</defs>
</svg>
