<svg width="93" height="27" viewBox="0 0 93 27" fill="none" xmlns="http://www.w3.org/2000/svg">
<path fill-rule="evenodd" clip-rule="evenodd" d="M23.1387 26.2773H23.1387V15.9964H17.2669V21.2931C17.2669 22.2826 16.4648 23.0848 15.4753 23.0848C14.4858 23.0848 13.6837 22.2826 13.6837 21.2931V4.01573C11.4029 6.37896 10 9.59498 10 13.1387C10 20.395 15.8824 26.2773 23.1387 26.2773ZM17.2669 12.4131V1.79165C17.2669 1.65822 17.2524 1.52819 17.2247 1.40308C19.0022 0.505556 21.0114 0 23.1387 0C26.4261 0 29.4316 1.20738 31.7358 3.20291C30.8374 3.29946 30.1378 4.06013 30.1378 4.9842C30.1378 5.97369 30.94 6.77584 31.9295 6.77584C32.8076 6.77584 33.5382 6.14406 33.6915 5.31025C35.3161 7.49668 36.2773 10.2054 36.2773 13.1387C36.2773 16.097 35.2996 18.827 33.6496 21.0231V9.91371C33.6496 8.92422 32.8475 8.12207 31.858 8.12207C30.8685 8.12207 30.0664 8.92422 30.0664 9.91371V23.2913C30.0664 23.6071 30.1481 23.9038 30.2915 24.1615C29.2025 24.8696 28.0019 25.4207 26.722 25.7828V6.80825C26.722 5.81876 25.9198 5.01661 24.9303 5.01661C23.9409 5.01661 23.1387 5.81876 23.1387 6.80825V12.4131H17.2669Z" fill="#2592F6"/>
<path d="M41.2773 13.7485C41.2773 13.2107 41.383 12.7401 41.5943 12.3367C41.812 11.9269 42.1097 11.6132 42.4875 11.3955C42.8717 11.1714 43.3038 11.0593 43.7841 11.0593C44.2835 11.0593 44.7125 11.1746 45.071 11.4051C45.1435 11.4508 45.2119 11.4991 45.2763 11.5499C45.4478 11.6853 45.8586 11.5571 45.8586 11.3386C45.8586 11.2268 45.9492 11.1362 46.061 11.1362H46.1947C46.3804 11.1362 46.5309 11.2867 46.5309 11.4723V16.044C46.5309 16.2296 46.3804 16.3801 46.1947 16.3801H46.0688C45.9527 16.3801 45.8586 16.286 45.8586 16.1699C45.8586 15.9448 45.4484 15.8165 45.2732 15.9579C45.2068 16.0116 45.1362 16.0627 45.0614 16.1112C44.7029 16.3417 44.2739 16.4569 43.7745 16.4569C43.3006 16.4569 42.8717 16.3449 42.4875 16.1208C42.1097 15.8967 41.812 15.5797 41.5943 15.17C41.383 14.7602 41.2773 14.2864 41.2773 13.7485ZM45.8586 13.7581C45.8586 13.3355 45.7722 12.9642 45.5993 12.644C45.4264 12.3239 45.1895 12.0774 44.8886 11.9045C44.594 11.7316 44.2675 11.6452 43.9089 11.6452C43.5376 11.6452 43.2046 11.7284 42.9101 11.8949C42.6155 12.0614 42.3818 12.3047 42.209 12.6248C42.0425 12.9386 41.9593 13.3131 41.9593 13.7485C41.9593 14.1775 42.0425 14.5553 42.209 14.8818C42.3818 15.202 42.6155 15.4485 42.9101 15.6214C43.2046 15.7878 43.5376 15.8711 43.9089 15.8711C44.2675 15.8711 44.594 15.7846 44.8886 15.6118C45.1895 15.4389 45.4264 15.1924 45.5993 14.8722C45.7722 14.5521 45.8586 14.1807 45.8586 13.7581Z" fill="#293F53"/>
<path d="M52.4453 11.0401C53.0727 11.0401 53.585 11.2354 53.9819 11.626C54.3789 12.0102 54.5774 12.5704 54.5774 13.3067V16.0488C54.5774 16.2318 54.4291 16.3801 54.2461 16.3801C54.0631 16.3801 53.9147 16.2318 53.9147 16.0488V13.3836C53.9147 12.8137 53.7707 12.3783 53.4825 12.0774C53.2008 11.7764 52.8134 11.626 52.3204 11.626C51.8146 11.626 51.4112 11.7861 51.1103 12.1062C50.8093 12.4263 50.6589 12.8969 50.6589 13.518V16.044C50.6589 16.2296 50.5084 16.3801 50.3227 16.3801C50.1371 16.3801 49.9866 16.2296 49.9866 16.044V11.4723C49.9866 11.2867 50.1371 11.1362 50.3227 11.1362H50.4834C50.5803 11.1362 50.6589 11.2147 50.6589 11.3116C50.6589 11.4953 50.9649 11.5912 51.1084 11.4766C51.1916 11.4101 51.2818 11.3511 51.3792 11.2994C51.6929 11.1266 52.0483 11.0401 52.4453 11.0401Z" fill="#293F53"/>
<path d="M57.6778 13.7485C57.6778 13.2107 57.7834 12.7401 57.9947 12.3367C58.2124 11.9269 58.5102 11.6132 58.8879 11.3955C59.2721 11.1714 59.7043 11.0593 60.1845 11.0593C60.6839 11.0593 61.1129 11.1746 61.4715 11.4051C61.5439 11.4508 61.6124 11.4991 61.6767 11.5499C61.8482 11.6853 62.259 11.5571 62.259 11.3386C62.259 11.2268 62.3497 11.1362 62.4615 11.1362H62.5952C62.7808 11.1362 62.9313 11.2867 62.9313 11.4723V16.044C62.9313 16.2296 62.7808 16.3801 62.5952 16.3801H62.4692C62.3532 16.3801 62.259 16.286 62.259 16.1699C62.259 15.9448 61.8489 15.8165 61.6737 15.9579C61.6073 16.0116 61.5367 16.0627 61.4619 16.1112C61.1033 16.3417 60.6743 16.4569 60.1749 16.4569C59.7011 16.4569 59.2721 16.3449 58.8879 16.1208C58.5102 15.8967 58.2124 15.5797 57.9947 15.17C57.7834 14.7602 57.6778 14.2864 57.6778 13.7485ZM62.259 13.7581C62.259 13.3355 62.1726 12.9642 61.9997 12.644C61.8269 12.3239 61.5899 12.0774 61.289 11.9045C60.9945 11.7316 60.6679 11.6452 60.3094 11.6452C59.938 11.6452 59.6051 11.7284 59.3105 11.8949C59.016 12.0614 58.7823 12.3047 58.6094 12.6248C58.4429 12.9386 58.3597 13.3131 58.3597 13.7485C58.3597 14.1775 58.4429 14.5553 58.6094 14.8818C58.7823 15.202 59.016 15.4485 59.3105 15.6214C59.6051 15.7878 59.938 15.8711 60.3094 15.8711C60.6679 15.8711 60.9945 15.7846 61.289 15.6118C61.5899 15.4389 61.8269 15.1924 61.9997 14.8722C62.1726 14.5521 62.259 14.1807 62.259 13.7581Z" fill="#293F53"/>
<path d="M67.9813 11.7028C67.5835 11.7028 67.261 12.0253 67.261 12.4231V14.9587C67.261 15.2788 67.3218 15.4997 67.4435 15.6214C67.5651 15.743 67.7796 15.8038 68.087 15.8038H68.4135C68.5727 15.8038 68.7017 15.9328 68.7017 16.092C68.7017 16.2511 68.5727 16.3801 68.4135 16.3801H67.9813C67.5075 16.3801 67.1554 16.2713 66.9249 16.0536C66.6944 15.8295 66.5791 15.4645 66.5791 14.9587V12.0678C66.5791 11.8662 66.4157 11.7028 66.2141 11.7028H66.1325C65.976 11.7028 65.8492 11.576 65.8492 11.4195C65.8492 11.263 65.976 11.1362 66.1325 11.1362H66.2141C66.4157 11.1362 66.5791 10.9728 66.5791 10.7712V10.1613C66.5791 9.97302 66.7318 9.82037 66.9201 9.82037C67.1084 9.82037 67.261 9.97302 67.261 10.1613V10.4783C67.261 10.8416 67.5556 11.1362 67.9189 11.1362H68.4183C68.5748 11.1362 68.7017 11.263 68.7017 11.4195C68.7017 11.576 68.5748 11.7028 68.4183 11.7028H67.9813Z" fill="#293F53"/>
<path d="M72.4036 11.3011C72.4036 11.4787 72.7239 11.5739 72.8606 11.4606C72.9274 11.4053 72.9991 11.3548 73.0759 11.309C73.2986 11.1791 73.5565 11.0963 73.8498 11.0605C74.042 11.0371 74.1996 11.1971 74.1996 11.3907V11.5588C74.1996 11.6595 74.1179 11.7412 74.0171 11.7412C73.5305 11.7412 73.1399 11.8725 72.8454 12.135C72.5508 12.3975 72.4036 12.8361 72.4036 13.4508V16.044C72.4036 16.2296 72.2531 16.3801 72.0674 16.3801C71.8818 16.3801 71.7313 16.2296 71.7313 16.044V11.4723C71.7313 11.2867 71.8818 11.1362 72.0674 11.1362H72.2387C72.3298 11.1362 72.4036 11.21 72.4036 11.3011Z" fill="#293F53"/>
<path d="M76.8245 13.7485C76.8245 13.2107 76.9301 12.7401 77.1414 12.3367C77.3591 11.9269 77.6569 11.6132 78.0346 11.3955C78.4188 11.1714 78.851 11.0593 79.3312 11.0593C79.8306 11.0593 80.2596 11.1746 80.6182 11.4051C80.6906 11.4508 80.759 11.4991 80.8234 11.5499C80.9949 11.6853 81.4057 11.5571 81.4057 11.3386C81.4057 11.2268 81.4964 11.1362 81.6082 11.1362H81.7419C81.9275 11.1362 82.078 11.2867 82.078 11.4723V16.044C82.078 16.2296 81.9275 16.3801 81.7419 16.3801H81.6159C81.4998 16.3801 81.4057 16.286 81.4057 16.1699C81.4057 15.9448 80.9955 15.8165 80.8204 15.9579C80.7539 16.0116 80.6833 16.0627 80.6086 16.1112C80.25 16.3417 79.821 16.4569 79.3216 16.4569C78.8478 16.4569 78.4188 16.3449 78.0346 16.1208C77.6569 15.8967 77.3591 15.5797 77.1414 15.17C76.9301 14.7602 76.8245 14.2864 76.8245 13.7485ZM81.4057 13.7581C81.4057 13.3355 81.3193 12.9642 81.1464 12.644C80.9735 12.3239 80.7366 12.0774 80.4357 11.9045C80.1412 11.7316 79.8146 11.6452 79.4561 11.6452C79.0847 11.6452 78.7517 11.7284 78.4572 11.8949C78.1627 12.0614 77.929 12.3047 77.7561 12.6248C77.5896 12.9386 77.5064 13.3131 77.5064 13.7485C77.5064 14.1775 77.5896 14.5553 77.7561 14.8818C77.929 15.202 78.1627 15.4485 78.4572 15.6214C78.7517 15.7878 79.0847 15.8711 79.4561 15.8711C79.8146 15.8711 80.1412 15.7846 80.4357 15.6118C80.7366 15.4389 80.9735 15.1924 81.1464 14.8722C81.3193 14.5521 81.4057 14.1807 81.4057 13.7581Z" fill="#293F53"/>
</svg>
