<svg width="24" height="25" viewBox="0 0 24 25" fill="none" xmlns="http://www.w3.org/2000/svg">
<path fill-rule="evenodd" clip-rule="evenodd" d="M11.3374 2.52839C11.7157 2.19366 12.2843 2.19366 12.6626 2.52839C14.8038 4.42275 17.5984 5.40907 20.4543 5.27839C20.9145 5.25733 21.3295 5.55338 21.4594 5.99536C22.1946 8.49689 22.1607 11.1617 21.3619 13.6437C21.1927 14.1694 20.6294 14.4585 20.1037 14.2893C19.5779 14.1201 19.2889 13.5567 19.4581 13.031C20.0569 11.1702 20.1477 9.18797 19.7279 7.28799C16.9269 7.23992 14.2157 6.28771 12 4.57458C9.78434 6.28771 7.07308 7.23993 4.27204 7.28799C3.70637 9.84747 4.07211 12.5346 5.31853 14.8593C6.68385 17.4057 8.99626 19.3127 11.7561 20.1682C12.2836 20.3317 12.5787 20.8919 12.4152 21.4194C12.2516 21.9469 11.6914 22.242 11.1639 22.0785C7.90232 21.0675 5.16947 18.8138 3.5559 15.8043C1.94234 12.7949 1.57763 9.27146 2.54059 5.99534C2.6705 5.55337 3.08553 5.25733 3.54571 5.27839C6.40161 5.40907 9.1962 4.42275 11.3374 2.52839Z" fill="url(#paint0_linear_138_153)"/>
<path fill-rule="evenodd" clip-rule="evenodd" d="M21.7071 16.5702C22.0976 16.9608 22.0976 17.5939 21.7071 17.9845L17.7071 21.9845C17.3166 22.375 16.6834 22.375 16.2929 21.9845L14.2929 19.9845C13.9024 19.5939 13.9024 18.9608 14.2929 18.5702C14.6834 18.1797 15.3166 18.1797 15.7071 18.5702L17 19.8631L20.2929 16.5702C20.6834 16.1797 21.3166 16.1797 21.7071 16.5702Z" fill="#2592F6"/>
<defs>
<linearGradient id="paint0_linear_138_153" x1="12" y1="2.27734" x2="12" y2="22.1236" gradientUnits="userSpaceOnUse">
<stop stop-color="#2592F6"/>
<stop offset="1" stop-color="#F38F70"/>
</linearGradient>
</defs>
</svg>
