<svg width="24" height="25" viewBox="0 0 24 25" fill="none" xmlns="http://www.w3.org/2000/svg">
<path fill-rule="evenodd" clip-rule="evenodd" d="M15.7071 8.57024C16.0976 8.96076 16.0976 9.59393 15.7071 9.98445L9.70711 15.9845C9.31658 16.375 8.68342 16.375 8.29289 15.9845C7.90237 15.5939 7.90237 14.9608 8.29289 14.5702L14.2929 8.57024C14.6834 8.17971 15.3166 8.17971 15.7071 8.57024Z" fill="#2592F6"/>
<path d="M9.5 10.2773C9.77614 10.2773 10 10.0535 10 9.77734C10 9.5012 9.77614 9.27734 9.5 9.27734C9.22386 9.27734 9 9.5012 9 9.77734C9 10.0535 9.22386 10.2773 9.5 10.2773Z" fill="#2592F6"/>
<path fill-rule="evenodd" clip-rule="evenodd" d="M9.5 10.2773C9.77614 10.2773 10 10.0535 10 9.77734C10 9.5012 9.77614 9.27734 9.5 9.27734C9.22386 9.27734 9 9.5012 9 9.77734C9 10.0535 9.22386 10.2773 9.5 10.2773ZM8 9.77734C8 8.94892 8.67157 8.27734 9.5 8.27734C10.3284 8.27734 11 8.94892 11 9.77734C11 10.6058 10.3284 11.2773 9.5 11.2773C8.67157 11.2773 8 10.6058 8 9.77734Z" fill="#2592F6"/>
<path d="M14.5 15.2773C14.7761 15.2773 15 15.0535 15 14.7773C15 14.5012 14.7761 14.2773 14.5 14.2773C14.2239 14.2773 14 14.5012 14 14.7773C14 15.0535 14.2239 15.2773 14.5 15.2773Z" fill="#2592F6"/>
<path fill-rule="evenodd" clip-rule="evenodd" d="M14.5 15.2773C14.7761 15.2773 15 15.0535 15 14.7773C15 14.5012 14.7761 14.2773 14.5 14.2773C14.2239 14.2773 14 14.5012 14 14.7773C14 15.0535 14.2239 15.2773 14.5 15.2773ZM13 14.7773C13 13.9489 13.6716 13.2773 14.5 13.2773C15.3284 13.2773 16 13.9489 16 14.7773C16 15.6058 15.3284 16.2773 14.5 16.2773C13.6716 16.2773 13 15.6058 13 14.7773Z" fill="#2592F6"/>
<path fill-rule="evenodd" clip-rule="evenodd" d="M12.01 4.2886C11.8518 4.2886 11.6952 4.31987 11.5492 4.3806C11.4032 4.44132 11.2706 4.53032 11.1591 4.64246L11.1571 4.64445L10.4571 5.34445L10.4551 5.34644C9.85595 5.94222 9.04549 6.27686 8.20054 6.27735L7.19997 6.27735C6.88171 6.27735 6.57649 6.40378 6.35145 6.62882C6.1264 6.85386 5.99997 7.15909 5.99997 7.47735V8.47735C5.99949 9.32229 5.66485 10.1333 5.06906 10.7325L5.06708 10.7345L4.36708 11.4345L4.36509 11.4364C4.25294 11.548 4.16395 11.6805 4.10322 11.8266C4.04249 11.9726 4.01123 12.1292 4.01123 12.2873C4.01123 12.4455 4.04249 12.6021 4.10322 12.7481C4.16395 12.8942 4.25294 13.0267 4.36509 13.1383L4.36708 13.1402L5.06907 13.8422C5.66485 14.4414 5.99949 15.2518 5.99997 16.0968L5.99997 17.0973C5.99997 17.4156 6.1264 17.7208 6.35145 17.9459C6.57649 18.1709 6.88171 18.2973 7.19997 18.2973H8.19997C9.04492 18.2978 9.85595 18.6325 10.4551 19.2283L10.4571 19.2302L11.1591 19.9322C11.2706 20.0444 11.4032 20.1334 11.5492 20.1941C11.6952 20.2548 11.8518 20.2861 12.01 20.2861C12.1681 20.2861 12.3247 20.2548 12.4707 20.1941C12.6168 20.1334 12.7494 20.0444 12.8609 19.9322L12.8629 19.9302L13.5629 19.2302L13.5649 19.2283C14.164 18.6325 14.9745 18.2978 15.8194 18.2973H16.82C17.1382 18.2973 17.4435 18.1709 17.6685 17.9459C17.8935 17.7208 18.02 17.4156 18.02 17.0973V16.0973C18.0205 15.2524 18.3551 14.4414 18.9509 13.8422L18.9529 13.8402L19.6529 13.1402L19.6549 13.1383C19.767 13.0267 19.856 12.8942 19.9167 12.7481C19.9775 12.6021 20.0087 12.4455 20.0087 12.2873C20.0087 12.1292 19.9775 11.9726 19.9167 11.8266C19.856 11.6805 19.767 11.548 19.6549 11.4364L19.6529 11.4345L18.9529 10.7345L18.9509 10.7325C18.3551 10.1333 18.0205 9.32286 18.02 8.47792V7.47735C18.02 7.15909 17.8935 6.85386 17.6685 6.62882C17.4435 6.40378 17.1382 6.27735 16.82 6.27735H15.82C14.975 6.27686 14.164 5.94222 13.5649 5.34644L13.5629 5.34445L12.8629 4.64445L12.8609 4.64246C12.7494 4.53032 12.6168 4.44132 12.4707 4.3806C12.3247 4.31987 12.1681 4.2886 12.01 4.2886ZM10.7812 2.53391C11.1706 2.37197 11.5882 2.2886 12.01 2.2886C12.4317 2.2886 12.8493 2.37197 13.2387 2.53391C13.6277 2.69566 13.9808 2.93261 14.278 3.23117C14.2784 3.23152 14.2787 3.23188 14.2791 3.23223L14.9751 3.92826C14.9754 3.92854 14.9757 3.92883 14.976 3.92912C15.2005 4.15194 15.5039 4.2771 15.8203 4.27735H16.82C17.6687 4.27735 18.4826 4.61449 19.0827 5.21461C19.6828 5.81472 20.02 6.62865 20.02 7.47735V8.47678C20.0202 8.79331 20.1454 9.09695 20.3684 9.32156C20.3682 9.32133 20.3686 9.32178 20.3684 9.32156L21.0651 10.0183C21.0655 10.0186 21.0658 10.019 21.0662 10.0194C21.3647 10.3165 21.6017 10.6697 21.7634 11.0586C21.9253 11.448 22.0087 11.8656 22.0087 12.2873C22.0087 12.7091 21.9253 13.1267 21.7634 13.5161C21.6017 13.9049 21.3649 14.258 21.0664 14.5551C21.066 14.5556 21.0655 14.556 21.0651 14.5564L20.3691 15.2525C20.3688 15.2528 20.3685 15.253 20.3682 15.2533C20.1453 15.4779 20.0202 15.7815 20.02 16.0979V17.0973C20.02 17.946 19.6828 18.76 19.0827 19.3601C18.4826 19.9602 17.6687 20.2973 16.82 20.2973H15.8205C15.5041 20.2975 15.2005 20.4227 14.976 20.6456C14.9757 20.6459 14.9754 20.6462 14.9751 20.6464L14.2791 21.3425C14.2786 21.3429 14.2782 21.3434 14.2777 21.3438C13.9806 21.6422 13.6275 21.8791 13.2387 22.0408C12.8493 22.2027 12.4317 22.2861 12.01 22.2861C11.5882 22.2861 11.1706 22.2027 10.7812 22.0408C10.3923 21.879 10.0391 21.6421 9.74199 21.3436C9.74162 21.3432 9.74125 21.3428 9.74088 21.3425L9.04486 20.6464C9.04463 20.6462 9.04508 20.6467 9.04486 20.6464C8.82024 20.4234 8.51594 20.2975 8.1994 20.2973H7.19997C6.35128 20.2973 5.53735 19.9602 4.93723 19.3601C4.33711 18.76 3.99997 17.946 3.99997 17.0973V16.0977C3.99972 15.7813 3.87456 15.4779 3.65174 15.2533C3.65146 15.253 3.65117 15.2528 3.65088 15.2525L2.95486 14.5564C2.9545 14.5561 2.95415 14.5557 2.95379 14.5554C2.65524 14.2582 2.41829 13.905 2.25654 13.5161C2.0946 13.1267 2.01123 12.7091 2.01123 12.2873C2.01123 11.8656 2.0946 11.448 2.25654 11.0586C2.41827 10.6697 2.65518 10.3166 2.95369 10.0194C2.95408 10.019 2.95447 10.0186 2.95486 10.0183L3.65088 9.32223C3.65117 9.32194 3.65146 9.32165 3.65174 9.32136C3.87456 9.09683 3.99972 8.79339 3.99997 8.47704V7.47735C3.99997 6.62865 4.33712 5.81472 4.93723 5.21461C5.53735 4.61449 6.35128 4.27735 7.19997 4.27735H8.19966C8.51602 4.2771 8.81946 4.15194 9.04399 3.92912C9.04428 3.92883 9.04457 3.92854 9.04486 3.92826L9.74088 3.23223C9.74127 3.23184 9.74165 3.23145 9.74204 3.23106C10.0392 2.93256 10.3923 2.69564 10.7812 2.53391Z" fill="url(#paint0_linear_138_158)"/>
<defs>
<linearGradient id="paint0_linear_138_158" x1="12.01" y1="2.2886" x2="12.01" y2="22.2861" gradientUnits="userSpaceOnUse">
<stop stop-color="#2592F6"/>
<stop offset="1" stop-color="#F38F70"/>
</linearGradient>
</defs>
</svg>
