<svg width="24" height="25" viewBox="0 0 24 25" fill="none" xmlns="http://www.w3.org/2000/svg">
<g clip-path="url(#clip0_138_167)">
<path d="M10.325 4.59434C10.751 2.83834 13.249 2.83834 13.675 4.59434C13.7389 4.85814 13.8642 5.10312 14.0407 5.30934C14.2172 5.51556 14.4399 5.6772 14.6907 5.78109C14.9414 5.88498 15.2132 5.92819 15.4838 5.90721C15.7544 5.88623 16.0162 5.80165 16.248 5.66034C17.791 4.72034 19.558 6.48634 18.618 8.03034C18.4769 8.262 18.3924 8.52368 18.3715 8.79412C18.3506 9.06455 18.3938 9.33611 18.4975 9.58672C18.6013 9.83733 18.7627 10.0599 18.9687 10.2364C19.1747 10.4129 19.4194 10.5382 19.683 10.6023C21.439 11.0283 21.439 13.5263 19.683 13.9523C19.4192 14.0163 19.1742 14.1416 18.968 14.3181C18.7618 14.4945 18.6001 14.7172 18.4963 14.968C18.3924 15.2188 18.3491 15.4905 18.3701 15.7611C18.3911 16.0317 18.4757 16.2936 18.617 16.5253C19.557 18.0683 17.791 19.8353 16.247 18.8953C16.0153 18.7542 15.7537 18.6698 15.4832 18.6489C15.2128 18.6279 14.9412 18.6711 14.6906 18.7749C14.44 18.8786 14.2174 19.0401 14.0409 19.2461C13.8645 19.4521 13.7391 19.6968 13.675 19.9603C13.249 21.7163 10.751 21.7163 10.325 19.9603C10.2611 19.6965 10.1358 19.4516 9.95929 19.2453C9.7828 19.0391 9.56011 18.8775 9.30935 18.7736C9.05859 18.6697 8.78683 18.6265 8.51621 18.6475C8.24559 18.6685 7.98375 18.753 7.752 18.8943C6.209 19.8343 4.442 18.0683 5.382 16.5243C5.5231 16.2927 5.60755 16.031 5.62848 15.7606C5.64942 15.4901 5.60624 15.2186 5.50247 14.968C5.3987 14.7174 5.23726 14.4948 5.03127 14.3183C4.82529 14.1418 4.58056 14.0164 4.317 13.9523C2.561 13.5263 2.561 11.0283 4.317 10.6023C4.5808 10.5384 4.82578 10.4131 5.032 10.2366C5.23822 10.0601 5.39985 9.83745 5.50375 9.58669C5.60764 9.33593 5.65085 9.06418 5.62987 8.79356C5.60889 8.52294 5.5243 8.2611 5.383 8.02934C4.443 6.48634 6.209 4.71934 7.753 5.65934C8.753 6.26734 10.049 5.72934 10.325 4.59434Z" stroke="url(#paint0_linear_138_167)" stroke-width="2" stroke-linecap="round" stroke-linejoin="round"/>
<path d="M9 12.2773C9 13.073 9.31607 13.8361 9.87868 14.3987C10.4413 14.9613 11.2044 15.2773 12 15.2773C12.7956 15.2773 13.5587 14.9613 14.1213 14.3987C14.6839 13.8361 15 13.073 15 12.2773C15 11.4817 14.6839 10.7186 14.1213 10.156C13.5587 9.59341 12.7956 9.27734 12 9.27734C11.2044 9.27734 10.4413 9.59341 9.87868 10.156C9.31607 10.7186 9 11.4817 9 12.2773Z" stroke="#2592F6" stroke-width="2" stroke-linecap="round" stroke-linejoin="round"/>
</g>
<defs>
<linearGradient id="paint0_linear_138_167" x1="12" y1="3.27734" x2="12" y2="21.2773" gradientUnits="userSpaceOnUse">
<stop stop-color="#2592F6"/>
<stop offset="1" stop-color="#F38F70"/>
</linearGradient>
<clipPath id="clip0_138_167">
<rect width="24" height="24" fill="white" transform="translate(0 0.277344)"/>
</clipPath>
</defs>
</svg>
