<svg width="24" height="25" viewBox="0 0 24 25" fill="none" xmlns="http://www.w3.org/2000/svg">
<path fill-rule="evenodd" clip-rule="evenodd" d="M10 16.2773C9.20435 16.2773 8.44129 16.5934 7.87868 17.156C7.31607 17.7186 7 18.4817 7 19.2773V21.2773C7 21.8296 6.55228 22.2773 6 22.2773C5.44772 22.2773 5 21.8296 5 21.2773V19.2773C5 17.9513 5.52678 16.6795 6.46447 15.7418C7.40215 14.8041 8.67392 14.2773 10 14.2773H12C12.5523 14.2773 13 14.7251 13 15.2773C13 15.8296 12.5523 16.2773 12 16.2773H10Z" fill="url(#paint0_linear_138_147)"/>
<path fill-rule="evenodd" clip-rule="evenodd" d="M17.7929 14.0702C18.1834 13.6797 18.8166 13.6797 19.2071 14.0702C20.0073 14.8704 21.2474 15.2773 22 15.2773C22.5523 15.2773 23 15.7251 23 16.2773C23 18.4937 22.3048 20.2042 21.425 21.3773C20.9881 21.9599 20.5009 22.4161 20.0235 22.7344C19.5746 23.0336 19.0336 23.2773 18.5 23.2773C17.9664 23.2773 17.4254 23.0336 16.9765 22.7344C16.4991 22.4161 16.0119 21.9599 15.575 21.3773C14.6952 20.2042 14 18.4937 14 16.2773C14 15.7251 14.4477 15.2773 15 15.2773C15.7526 15.2773 16.9927 14.8704 17.7929 14.0702ZM16.0473 17.1591C16.194 18.4934 16.6621 19.4935 17.175 20.1773C17.4881 20.5948 17.8134 20.8886 18.0859 21.0703C18.3225 21.228 18.4636 21.2657 18.497 21.2746C18.4981 21.2749 18.4991 21.2752 18.5 21.2754C18.5009 21.2752 18.5019 21.2749 18.503 21.2746C18.5364 21.2657 18.6775 21.228 18.9141 21.0703C19.1866 20.8886 19.5119 20.5948 19.825 20.1773C20.3379 19.4935 20.806 18.4934 20.9527 17.1591C20.1465 16.9876 19.2662 16.6292 18.5 16.0814C17.7338 16.6292 16.8535 16.9876 16.0473 17.1591Z" fill="#2592F6"/>
<path fill-rule="evenodd" clip-rule="evenodd" d="M8.46447 3.74181C9.40215 2.80413 10.6739 2.27734 12 2.27734C13.3261 2.27734 14.5979 2.80413 15.5355 3.74181C16.4732 4.67949 17 5.95126 17 7.27734C17 8.60343 16.4732 9.8752 15.5355 10.8129C14.5979 11.7506 13.3261 12.2773 12 12.2773C10.6739 12.2773 9.40215 11.7506 8.46447 10.8129C7.52678 9.8752 7 8.60343 7 7.27734C7 5.95126 7.52678 4.67949 8.46447 3.74181ZM12 4.27734C11.2044 4.27734 10.4413 4.59341 9.87868 5.15602C9.31607 5.71863 9 6.48169 9 7.27734C9 8.07299 9.31607 8.83606 9.87868 9.39866C10.4413 9.96127 11.2044 10.2773 12 10.2773C12.7956 10.2773 13.5587 9.96127 14.1213 9.39866C14.6839 8.83606 15 8.07299 15 7.27734C15 6.48169 14.6839 5.71863 14.1213 5.15602C13.5587 4.59341 12.7956 4.27734 12 4.27734Z" fill="url(#paint1_linear_138_147)"/>
<defs>
<linearGradient id="paint0_linear_138_147" x1="9" y1="14.2773" x2="9" y2="22.2773" gradientUnits="userSpaceOnUse">
<stop stop-color="#2592F6"/>
<stop offset="1" stop-color="#F38F70"/>
</linearGradient>
<linearGradient id="paint1_linear_138_147" x1="12" y1="2.27734" x2="12" y2="12.2773" gradientUnits="userSpaceOnUse">
<stop stop-color="#2592F6"/>
<stop offset="1" stop-color="#F38F70"/>
</linearGradient>
</defs>
</svg>
