<svg width="24" height="25" viewBox="0 0 24 25" fill="none" xmlns="http://www.w3.org/2000/svg">
<path fill-rule="evenodd" clip-rule="evenodd" d="M7.46447 3.74181C8.40215 2.80413 9.67392 2.27734 11 2.27734C12.3261 2.27734 13.5979 2.80413 14.5355 3.74181C15.4732 4.67949 16 5.95126 16 7.27734C16 8.60343 15.4732 9.8752 14.5355 10.8129C13.5979 11.7506 12.3261 12.2773 11 12.2773C9.67392 12.2773 8.40215 11.7506 7.46447 10.8129C6.52678 9.8752 6 8.60343 6 7.27734C6 5.95126 6.52678 4.67949 7.46447 3.74181ZM11 4.27734C10.2044 4.27734 9.44129 4.59341 8.87868 5.15602C8.31607 5.71863 8 6.48169 8 7.27734C8 8.07299 8.31607 8.83606 8.87868 9.39866C9.44129 9.96127 10.2044 10.2773 11 10.2773C11.7956 10.2773 12.5587 9.96127 13.1213 9.39866C13.6839 8.83606 14 8.07299 14 7.27734C14 6.48169 13.6839 5.71863 13.1213 5.15602C12.5587 4.59341 11.7956 4.27734 11 4.27734Z" fill="url(#paint0_linear_138_141)"/>
<path fill-rule="evenodd" clip-rule="evenodd" d="M9 16.2773C8.20435 16.2773 7.44129 16.5934 6.87868 17.156C6.31607 17.7186 6 18.4817 6 19.2773V21.2773C6 21.8296 5.55228 22.2773 5 22.2773C4.44772 22.2773 4 21.8296 4 21.2773V19.2773C4 17.9513 4.52678 16.6795 5.46447 15.7418C6.40215 14.8041 7.67392 14.2773 9 14.2773H9.5C10.0523 14.2773 10.5 14.7251 10.5 15.2773C10.5 15.8296 10.0523 16.2773 9.5 16.2773H9Z" fill="url(#paint1_linear_138_141)"/>
<path fill-rule="evenodd" clip-rule="evenodd" d="M12.9548 15.1925C13.5613 14.6043 14.3733 14.2761 15.2181 14.2777C15.8578 14.2789 16.4781 14.4692 17.0038 14.8179C17.5314 14.4704 18.1531 14.282 18.7936 14.2832C19.6388 14.2848 20.4499 14.6165 21.0542 15.2074C21.3543 15.5007 21.5927 15.851 21.7552 16.2379C21.9179 16.625 22.0013 17.0407 22.0006 17.4605C21.9999 17.8803 21.9151 18.2958 21.7512 18.6823C21.5877 19.068 21.3488 19.417 21.0484 19.709C21.0478 19.7097 21.0471 19.7103 21.0464 19.711L17.7 22.9914C17.3109 23.3729 16.6879 23.3726 16.2992 22.9907L12.946 19.6965C12.9457 19.6961 12.9453 19.6958 12.9449 19.6954C12.6452 19.4022 12.4072 19.0519 12.2449 18.6653C12.0824 18.2782 11.9991 17.8624 11.9999 17.4426C12.0007 17.0228 12.0856 16.6074 12.2496 16.2209C12.4136 15.8344 12.6535 15.4847 12.9548 15.1925ZM15.2143 16.2777C14.8906 16.2771 14.5795 16.4028 14.3472 16.6282C14.2376 16.7345 14.1504 16.8617 14.0907 17.0022C14.0311 17.1428 14.0002 17.2938 13.9999 17.4465C13.9996 17.5992 14.0299 17.7504 14.089 17.8912C14.1481 18.0319 14.2348 18.1595 14.344 18.2662L14.3458 18.268L17.0008 20.8762L19.6536 18.2757C19.7632 18.1693 19.8503 18.0422 19.9099 17.9016C19.9695 17.761 20.0004 17.6099 20.0006 17.4573C20.0009 17.3046 19.9705 17.1534 19.9114 17.0126C19.8522 16.8719 19.7655 16.7444 19.6563 16.6377C19.4248 16.4113 19.1136 16.2838 18.7898 16.2832C18.4669 16.2826 18.1564 16.4078 17.9242 16.6322L17.7027 16.8498C17.3131 17.2325 16.6885 17.2318 16.2997 16.8482L16.0786 16.6301C15.8473 16.4047 15.5373 16.2783 15.2143 16.2777Z" fill="#2592F6"/>
<defs>
<linearGradient id="paint0_linear_138_141" x1="11" y1="2.27734" x2="11" y2="12.2773" gradientUnits="userSpaceOnUse">
<stop stop-color="#2592F6"/>
<stop offset="1" stop-color="#F38F70"/>
</linearGradient>
<linearGradient id="paint1_linear_138_141" x1="7.25" y1="14.2773" x2="7.25" y2="22.2773" gradientUnits="userSpaceOnUse">
<stop stop-color="#2592F6"/>
<stop offset="1" stop-color="#F38F70"/>
</linearGradient>
</defs>
</svg>
