<svg width="16" height="16" viewBox="0 0 16 16" fill="none" xmlns="http://www.w3.org/2000/svg">
<path fill-rule="evenodd" clip-rule="evenodd" d="M5.64297 2.30965C6.26809 1.68453 7.11593 1.33334 7.99999 1.33334C8.88404 1.33334 9.73189 1.68453 10.357 2.30965C10.9821 2.93477 11.3333 3.78261 11.3333 4.66667C11.3333 5.55072 10.9821 6.39857 10.357 7.02369C9.73189 7.64881 8.88404 8 7.99999 8C7.11593 8 6.26809 7.64881 5.64297 7.02369C5.01785 6.39857 4.66666 5.55072 4.66666 4.66667C4.66666 3.78261 5.01785 2.93477 5.64297 2.30965ZM7.99999 2.66667C7.46956 2.66667 6.96085 2.87738 6.58578 3.25246C6.2107 3.62753 5.99999 4.13624 5.99999 4.66667C5.99999 5.1971 6.2107 5.70581 6.58578 6.08088C6.96085 6.45596 7.46956 6.66667 7.99999 6.66667C8.53042 6.66667 9.03913 6.45596 9.4142 6.08088C9.78928 5.70581 9.99999 5.1971 9.99999 4.66667C9.99999 4.13624 9.78928 3.62753 9.4142 3.25246C9.03913 2.87738 8.53042 2.66667 7.99999 2.66667Z" fill="#2592F6"/>
<path fill-rule="evenodd" clip-rule="evenodd" d="M6.66668 10.6667C6.13624 10.6667 5.62754 10.8774 5.25246 11.2525C4.87739 11.6275 4.66668 12.1362 4.66668 12.6667V14C4.66668 14.3682 4.3682 14.6667 4.00001 14.6667C3.63182 14.6667 3.33334 14.3682 3.33334 14V12.6667C3.33334 11.7826 3.68453 10.9348 4.30965 10.3096C4.93478 9.68453 5.78262 9.33334 6.66668 9.33334H7.00001C7.3682 9.33334 7.66668 9.63181 7.66668 10C7.66668 10.3682 7.3682 10.6667 7.00001 10.6667H6.66668Z" fill="#2592F6"/>
<path fill-rule="evenodd" clip-rule="evenodd" d="M11.8667 10.5077L11.5061 11.2359C11.4088 11.4323 11.2212 11.5683 11.0043 11.5998L10.2029 11.716L10.7812 12.2778C10.939 12.4311 11.011 12.6523 10.9737 12.8691L10.8367 13.665L11.5573 13.2875C11.751 13.186 11.9823 13.186 12.1761 13.2875L12.8963 13.6649L12.7596 12.8689C12.7224 12.6522 12.7944 12.4311 12.9521 12.2778L13.5304 11.716L12.729 11.5998C12.5121 11.5683 12.3245 11.4323 12.2272 11.2359L11.8667 10.5077ZM11.3779 8.80549C11.5247 8.71455 11.694 8.66636 11.8667 8.66636C12.0393 8.66636 12.2086 8.71454 12.3554 8.80549C12.5022 8.89644 12.6207 9.02655 12.6976 9.18117L12.6981 9.18215L13.2667 10.3305L14.5382 10.5148C14.5381 10.5148 14.5384 10.5148 14.5382 10.5148C14.5383 10.5148 14.5389 10.5149 14.539 10.5149C14.7099 10.5396 14.8705 10.6116 15.0027 10.7227C15.135 10.834 15.2336 10.9802 15.2872 11.1446C15.3409 11.309 15.3475 11.4851 15.3062 11.653C15.265 11.821 15.1776 11.974 15.0539 12.0949L15.0525 12.0962L14.1332 12.9894L14.3496 14.2491C14.3495 14.2489 14.3496 14.2493 14.3496 14.2491C14.3496 14.2492 14.3497 14.2497 14.3497 14.2498C14.379 14.4203 14.3601 14.5957 14.2949 14.756C14.2296 14.9165 14.1206 15.0555 13.9803 15.1572C13.84 15.259 13.674 15.3193 13.5011 15.3314C13.3289 15.3434 13.1568 15.3071 13.0042 15.2266C13.0036 15.2263 13.003 15.226 13.0023 15.2257L11.8667 14.6306L10.7281 15.2272L10.7264 15.228C10.5739 15.3075 10.4022 15.3429 10.2306 15.3304C10.0591 15.3179 9.89434 15.258 9.75486 15.1573C9.61538 15.0566 9.50663 14.9192 9.44075 14.7603C9.37487 14.6013 9.35446 14.4273 9.38179 14.2574L9.38294 14.2502L9.60003 12.9893L8.68196 12.0973C8.68169 12.0971 8.68141 12.0968 8.68114 12.0965C8.55673 11.976 8.46864 11.8229 8.42687 11.6548C8.38502 11.4862 8.39139 11.3094 8.44525 11.1443C8.49912 10.9792 8.59831 10.8326 8.7315 10.7212C8.86398 10.6104 9.0248 10.5389 9.19579 10.5147L10.4666 10.3305L11.0357 9.18117C11.1126 9.02654 11.2311 8.89644 11.3779 8.80549Z" fill="#2592F6"/>
</svg>
