<svg width="20" height="21" viewBox="0 0 20 21" fill="none" xmlns="http://www.w3.org/2000/svg">
<path fill-rule="evenodd" clip-rule="evenodd" d="M8.31004 9.26154C9.56193 8.6356 11.2214 8.27734 13 8.27734C14.7786 8.27734 16.4381 8.6356 17.69 9.26154C18.8821 9.85761 20 10.8661 20 12.2773C20 13.6886 18.8821 14.6971 17.69 15.2931C16.4381 15.9191 14.7786 16.2773 13 16.2773C11.2214 16.2773 9.56193 15.9191 8.31004 15.2931C7.1179 14.6971 6 13.6886 6 12.2773C6 10.8661 7.1179 9.85761 8.31004 9.26154ZM9.20446 11.0504C8.2251 11.5401 8 12.0316 8 12.2773C8 12.5231 8.2251 13.0146 9.20446 13.5043C10.1241 13.9641 11.4646 14.2773 13 14.2773C14.5354 14.2773 15.8759 13.9641 16.7955 13.5043C17.7749 13.0146 18 12.5231 18 12.2773C18 12.0316 17.7749 11.5401 16.7955 11.0504C15.8759 10.5906 14.5354 10.2773 13 10.2773C11.4646 10.2773 10.1241 10.5906 9.20446 11.0504Z" fill="url(#paint0_linear_486_1080)"/>
<path fill-rule="evenodd" clip-rule="evenodd" d="M7 11.2773C7.55228 11.2773 8 11.7251 8 12.2773V16.2773C8 16.5225 8.22496 17.0141 9.20455 17.504C10.1242 17.9639 11.4647 18.2773 13 18.2773C14.5353 18.2773 15.8758 17.9639 16.7955 17.504C17.775 17.0141 18 16.5225 18 16.2773V12.2773C18 11.7251 18.4477 11.2773 19 11.2773C19.5523 11.2773 20 11.7251 20 12.2773V16.2773C20 17.6882 18.882 18.6966 17.69 19.2927C16.4382 19.9188 14.7787 20.2773 13 20.2773C11.2213 20.2773 9.5618 19.9188 8.30995 19.2927C7.11804 18.6966 6 17.6882 6 16.2773V12.2773C6 11.7251 6.44772 11.2773 7 11.2773Z" fill="url(#paint1_linear_486_1080)"/>
<path fill-rule="evenodd" clip-rule="evenodd" d="M3.72255 0.718605C5.75981 0.130257 8.24019 0.130257 10.2775 0.718605C11.2995 1.01377 12.1926 1.45163 12.8506 2.02134C13.5081 2.59065 14 3.36001 14 4.27734C14 5.19468 13.5081 5.96404 12.8506 6.53335C12.1926 7.10306 11.2995 7.54092 10.2775 7.83608C8.24019 8.42443 5.75981 8.42443 3.72255 7.83608C2.70048 7.54092 1.80743 7.10306 1.14943 6.53335C0.491902 5.96404 0 5.19468 0 4.27734C0 3.36001 0.491902 2.59065 1.14943 2.02134C1.80743 1.45163 2.70048 1.01377 3.72255 0.718605ZM9.72255 2.64008C8.04781 2.15643 5.95219 2.15643 4.27745 2.64008C3.44352 2.88092 2.83658 3.20606 2.45857 3.53335C2.0801 3.86104 2 4.12268 2 4.27734C2 4.43201 2.0801 4.69365 2.45857 5.02134C2.83657 5.34863 3.44352 5.67377 4.27745 5.9146C5.95219 6.39826 8.04781 6.39826 9.72255 5.9146C10.5565 5.67377 11.1634 5.34863 11.5414 5.02134C11.9199 4.69365 12 4.43201 12 4.27734C12 4.12268 11.9199 3.86104 11.5414 3.53335C11.1634 3.20606 10.5565 2.88092 9.72255 2.64008Z" fill="url(#paint2_linear_486_1080)"/>
<path fill-rule="evenodd" clip-rule="evenodd" d="M1 3.27734C1.55228 3.27734 2 3.72506 2 4.27734V14.2773C2 14.3807 2.0263 14.4923 2.21824 14.6697C2.44123 14.8758 2.8186 15.1004 3.40876 15.3647C3.9128 15.5905 4.13839 16.1821 3.91264 16.6861C3.68689 17.1901 3.09528 17.4157 2.59124 17.19C1.9534 16.9043 1.33078 16.5729 0.860758 16.1385C0.3597 15.6754 0 15.062 0 14.2773V4.27734C0 3.72506 0.447715 3.27734 1 3.27734Z" fill="url(#paint3_linear_486_1080)"/>
<path fill-rule="evenodd" clip-rule="evenodd" d="M1 8.27734C1.55228 8.27734 2 8.72506 2 9.27734C2 9.3807 2.0263 9.49232 2.21824 9.66972C2.44123 9.87581 2.8186 10.1004 3.40876 10.3647C3.9128 10.5905 4.13839 11.1821 3.91264 11.6861C3.68689 12.1901 3.09528 12.4157 2.59124 12.19C1.9534 11.9043 1.33078 11.5729 0.860758 11.1385C0.3597 10.6754 0 10.062 0 9.27734C0 8.72506 0.447715 8.27734 1 8.27734Z" fill="url(#paint4_linear_486_1080)"/>
<defs>
<linearGradient id="paint0_linear_486_1080" x1="10" y1="0.277344" x2="10" y2="20.2773" gradientUnits="userSpaceOnUse">
<stop stop-color="#2592F6"/>
<stop offset="1" stop-color="#F38F70"/>
</linearGradient>
<linearGradient id="paint1_linear_486_1080" x1="10" y1="0.277344" x2="10" y2="20.2773" gradientUnits="userSpaceOnUse">
<stop stop-color="#2592F6"/>
<stop offset="1" stop-color="#F38F70"/>
</linearGradient>
<linearGradient id="paint2_linear_486_1080" x1="10" y1="0.277344" x2="10" y2="20.2773" gradientUnits="userSpaceOnUse">
<stop stop-color="#2592F6"/>
<stop offset="1" stop-color="#F38F70"/>
</linearGradient>
<linearGradient id="paint3_linear_486_1080" x1="10" y1="0.277344" x2="10" y2="20.2773" gradientUnits="userSpaceOnUse">
<stop stop-color="#2592F6"/>
<stop offset="1" stop-color="#F38F70"/>
</linearGradient>
<linearGradient id="paint4_linear_486_1080" x1="10" y1="0.277344" x2="10" y2="20.2773" gradientUnits="userSpaceOnUse">
<stop stop-color="#2592F6"/>
<stop offset="1" stop-color="#F38F70"/>
</linearGradient>
</defs>
</svg>
