<svg width="19" height="14" viewBox="0 0 19 14" fill="none" xmlns="http://www.w3.org/2000/svg">
<path fill-rule="evenodd" clip-rule="evenodd" d="M10 6.27735C10.5523 6.27735 11 6.72506 11 7.27735V7.28735C11 7.83963 10.5523 8.28735 10 8.28735C9.44772 8.28735 9 7.83963 9 7.28735V7.27735C9 6.72506 9.44772 6.27735 10 6.27735Z" fill="url(#paint0_linear_486_1072)"/>
<path fill-rule="evenodd" clip-rule="evenodd" d="M12.121 3.74213C12.5116 3.35167 13.1448 3.35176 13.5352 3.74235C14.4726 4.67998 14.9992 5.95153 14.9992 7.27735C14.9992 8.60317 14.4726 9.87471 13.5352 10.8123C13.1448 11.2029 12.5116 11.203 12.121 10.8126C11.7304 10.4221 11.7303 9.78893 12.1208 9.39835C12.6832 8.83576 12.9992 8.07284 12.9992 7.27735C12.9992 6.48185 12.6832 5.71893 12.1208 5.15635C11.7303 4.76576 11.7304 4.1326 12.121 3.74213Z" fill="url(#paint1_linear_486_1072)"/>
<path fill-rule="evenodd" clip-rule="evenodd" d="M14.9499 0.913257C15.3404 0.522723 15.9736 0.522707 16.3641 0.913221C17.1999 1.74895 17.8628 2.74113 18.3152 3.83309C18.7675 4.92505 19.0003 6.09541 19.0003 7.27735C19.0003 8.45928 18.7675 9.62964 18.3152 10.7216C17.8628 11.8136 17.1999 12.8057 16.3641 13.6415C15.9736 14.032 15.3404 14.032 14.9499 13.6414C14.5594 13.2509 14.5594 12.6177 14.9499 12.2272C15.6 11.5772 16.1156 10.8055 16.4674 9.95621C16.8192 9.10691 17.0003 8.19663 17.0003 7.27735C17.0003 6.35806 16.8192 5.44778 16.4674 4.59848C16.1156 3.74918 15.6 2.97749 14.9499 2.32747C14.5594 1.93696 14.5594 1.30379 14.9499 0.913257Z" fill="url(#paint2_linear_486_1072)"/>
<path fill-rule="evenodd" clip-rule="evenodd" d="M7.875 3.74213C8.26559 4.1326 8.26568 4.76576 7.87522 5.15635C7.31281 5.71893 6.99686 6.48185 6.99686 7.27735C6.99686 8.07284 7.31281 8.83576 7.87522 9.39835C8.26568 9.78893 8.26559 10.4221 7.875 10.8126C7.48442 11.203 6.85126 11.2029 6.46079 10.8123C5.52344 9.87471 4.99686 8.60317 4.99686 7.27735C4.99686 5.95153 5.52344 4.67998 6.46079 3.74235C6.85126 3.35176 7.48442 3.35167 7.875 3.74213Z" fill="url(#paint3_linear_486_1072)"/>
<path fill-rule="evenodd" clip-rule="evenodd" d="M5.04413 0.913257C5.43464 1.30379 5.43463 1.93696 5.04409 2.32747C4.39404 2.97749 3.8784 3.74918 3.52659 4.59848C3.17479 5.44778 2.99371 6.35806 2.99371 7.27735C2.99371 8.19663 3.17479 9.10691 3.52659 9.95621C3.8784 10.8055 4.39404 11.5772 5.04409 12.2272C5.43463 12.6177 5.43464 13.2509 5.04413 13.6414C4.65362 14.032 4.02045 14.032 3.62992 13.6415C2.79414 12.8057 2.13116 11.8136 1.67884 10.7216C1.22652 9.62964 0.993713 8.45928 0.993713 7.27735C0.993713 6.09541 1.22652 4.92505 1.67884 3.83309C2.13116 2.74113 2.79414 1.74895 3.62992 0.913221C4.02045 0.522707 4.65362 0.522723 5.04413 0.913257Z" fill="url(#paint4_linear_486_1072)"/>
<defs>
<linearGradient id="paint0_linear_486_1072" x1="9.99701" y1="0.620346" x2="9.99701" y2="13.9343" gradientUnits="userSpaceOnUse">
<stop stop-color="#2592F6"/>
<stop offset="1" stop-color="#F38F70"/>
</linearGradient>
<linearGradient id="paint1_linear_486_1072" x1="9.99701" y1="0.620346" x2="9.99701" y2="13.9343" gradientUnits="userSpaceOnUse">
<stop stop-color="#2592F6"/>
<stop offset="1" stop-color="#F38F70"/>
</linearGradient>
<linearGradient id="paint2_linear_486_1072" x1="9.99701" y1="0.620346" x2="9.99701" y2="13.9343" gradientUnits="userSpaceOnUse">
<stop stop-color="#2592F6"/>
<stop offset="1" stop-color="#F38F70"/>
</linearGradient>
<linearGradient id="paint3_linear_486_1072" x1="9.99701" y1="0.620346" x2="9.99701" y2="13.9343" gradientUnits="userSpaceOnUse">
<stop stop-color="#2592F6"/>
<stop offset="1" stop-color="#F38F70"/>
</linearGradient>
<linearGradient id="paint4_linear_486_1072" x1="9.99701" y1="0.620346" x2="9.99701" y2="13.9343" gradientUnits="userSpaceOnUse">
<stop stop-color="#2592F6"/>
<stop offset="1" stop-color="#F38F70"/>
</linearGradient>
</defs>
</svg>
