<svg width="22" height="21" viewBox="0 0 22 21" fill="none" xmlns="http://www.w3.org/2000/svg">
<path fill-rule="evenodd" clip-rule="evenodd" d="M10.9994 0.277344C12.6466 0.274495 14.2691 0.678615 15.7225 1.4538C17.1764 2.22918 18.4161 3.35178 19.3315 4.72179C19.6383 5.181 19.5148 5.802 19.0555 6.10883C18.5963 6.41565 17.9753 6.29211 17.6685 5.8329C16.9362 4.73689 15.9444 3.83881 14.7814 3.21851C13.6183 2.5982 12.32 2.2749 11.0018 2.27734L10.9994 2.27734C9.68368 2.27654 8.38813 2.60062 7.22777 3.2208C6.06741 3.84098 5.07813 4.73808 4.34777 5.83246C4.04119 6.29183 3.42026 6.4157 2.96088 6.10912C2.5015 5.80254 2.37764 5.18161 2.68422 4.72223C3.59737 3.35396 4.83425 2.23233 6.28503 1.45693C7.73545 0.681719 9.3548 0.276542 10.9994 0.277344Z" fill="url(#paint0_linear_486_1084)"/>
<path fill-rule="evenodd" clip-rule="evenodd" d="M11.0295 0.429039C11.498 0.721478 11.6407 1.33835 11.3483 1.80685C10.6148 2.98196 10.0371 4.24741 9.62978 5.57141C9.46737 6.09927 8.9078 6.39554 8.37993 6.23313C7.85207 6.07073 7.5558 5.51115 7.71821 4.98328C8.1765 3.49367 8.82644 2.06994 9.65169 0.747837C9.94413 0.279331 10.561 0.1366 11.0295 0.429039Z" fill="url(#paint1_linear_486_1084)"/>
<path fill-rule="evenodd" clip-rule="evenodd" d="M10.9701 0.429272C11.4385 0.136627 12.0554 0.279088 12.3481 0.747466C13.174 2.06945 13.8247 3.4932 14.2837 4.98291C14.4463 5.51072 14.1502 6.07041 13.6224 6.23302C13.0946 6.39563 12.5349 6.09958 12.3723 5.57178C11.9644 4.24769 11.3861 2.98224 10.6519 1.80722C10.3593 1.33885 10.5017 0.721916 10.9701 0.429272Z" fill="url(#paint2_linear_486_1084)"/>
<path fill-rule="evenodd" clip-rule="evenodd" d="M2.96088 14.4456C3.42026 14.139 4.04119 14.2629 4.34777 14.7222C5.07813 15.8166 6.06741 16.7137 7.22777 17.3339C8.38813 17.9541 9.68368 18.2782 10.9994 18.2773H11.0018C12.32 18.2798 13.6183 17.9565 14.7814 17.3362C15.9444 16.7159 16.9362 15.8178 17.6685 14.7218C17.9753 14.2626 18.5963 14.139 19.0555 14.4459C19.5148 14.7527 19.6383 15.3737 19.3315 15.8329C18.4161 17.2029 17.1764 18.3255 15.7225 19.1009C14.2691 19.876 12.6467 20.2802 10.9995 20.2773L10.9981 20.2773L11 19.2773L11.0006 20.2773H10.9995C9.35491 20.2782 7.7355 19.873 6.28503 19.0978C4.83425 18.3224 3.59737 17.2007 2.68422 15.8325C2.37764 15.3731 2.5015 14.7521 2.96088 14.4456Z" fill="url(#paint3_linear_486_1084)"/>
<path fill-rule="evenodd" clip-rule="evenodd" d="M8.37993 14.3216C8.9078 14.1592 9.46737 14.4554 9.62978 14.9833C10.0371 16.3073 10.6148 17.5727 11.3483 18.7478C11.6407 19.2163 11.498 19.8332 11.0295 20.1257C10.561 20.4181 9.94413 20.2754 9.65169 19.8069C8.82644 18.4848 8.1765 17.061 7.71821 15.5714C7.5558 15.0435 7.85207 14.484 8.37993 14.3216Z" fill="url(#paint4_linear_486_1084)"/>
<path fill-rule="evenodd" clip-rule="evenodd" d="M13.6224 14.3217C14.1502 14.4843 14.4463 15.044 14.2837 15.5718C13.8247 17.0615 13.174 18.4852 12.3481 19.8072C12.0554 20.2756 11.4385 20.4181 10.9701 20.1254C10.5017 19.8328 10.3593 19.2158 10.6519 18.7475C11.3861 17.5725 11.9644 16.307 12.3723 14.9829C12.5349 14.4551 13.0946 14.1591 13.6224 14.3217Z" fill="url(#paint5_linear_486_1084)"/>
<path fill-rule="evenodd" clip-rule="evenodd" d="M0.757457 7.3072C1.29325 7.17325 1.83619 7.49901 1.97013 8.03481L2.19126 8.9193L2.56366 7.92622C2.71003 7.53592 3.08315 7.27734 3.49999 7.27734C3.91684 7.27734 4.28996 7.53592 4.43632 7.92622L4.80873 8.9193L5.02985 8.03481C5.1638 7.49901 5.70673 7.17325 6.24253 7.3072C6.77832 7.44115 7.10408 7.98409 6.97013 8.51988L5.97013 12.5199C5.86396 12.9446 5.49391 13.2508 5.05686 13.2757C4.61981 13.3006 4.21737 13.0384 4.06366 12.6285L3.49999 11.1253L2.93632 12.6285C2.78261 13.0384 2.38018 13.3006 1.94313 13.2757C1.50608 13.2508 1.13602 12.9446 1.02985 12.5199L0.0298499 8.51988C-0.104099 7.98409 0.221662 7.44115 0.757457 7.3072Z" fill="url(#paint6_linear_486_1084)"/>
<path fill-rule="evenodd" clip-rule="evenodd" d="M15.7575 7.3072C16.2933 7.17325 16.8362 7.49901 16.9701 8.03481L17.1913 8.9193L17.5637 7.92622C17.71 7.53592 18.0831 7.27734 18.5 7.27734C18.9168 7.27734 19.29 7.53592 19.4363 7.92622L19.8087 8.9193L20.0299 8.03481C20.1638 7.49901 20.7067 7.17325 21.2425 7.3072C21.7783 7.44115 22.1041 7.98409 21.9701 8.51988L20.9701 12.5199C20.864 12.9446 20.4939 13.2508 20.0569 13.2757C19.6198 13.3006 19.2174 13.0384 19.0637 12.6285L18.5 11.1253L17.9363 12.6285C17.7826 13.0384 17.3802 13.3006 16.9431 13.2757C16.5061 13.2508 16.136 12.9446 16.0299 12.5199L15.0299 8.51988C14.8959 7.98409 15.2217 7.44115 15.7575 7.3072Z" fill="url(#paint7_linear_486_1084)"/>
<path fill-rule="evenodd" clip-rule="evenodd" d="M8.25746 7.3072C8.79325 7.17325 9.33619 7.49901 9.47013 8.03481L9.69126 8.9193L10.0637 7.92622C10.21 7.53592 10.5831 7.27734 11 7.27734C11.4168 7.27734 11.79 7.53592 11.9363 7.92622L12.3087 8.9193L12.5299 8.03481C12.6638 7.49901 13.2067 7.17325 13.7425 7.3072C14.2783 7.44115 14.6041 7.98409 14.4701 8.51988L13.4701 12.5199C13.364 12.9446 12.9939 13.2508 12.5569 13.2757C12.1198 13.3006 11.7174 13.0384 11.5637 12.6285L11 11.1253L10.4363 12.6285C10.2826 13.0384 9.88018 13.3006 9.44313 13.2757C9.00608 13.2508 8.63602 12.9446 8.52985 12.5199L7.52985 8.51988C7.3959 7.98409 7.72166 7.44115 8.25746 7.3072Z" fill="url(#paint8_linear_486_1084)"/>
<defs>
<linearGradient id="paint0_linear_486_1084" x1="11" y1="0.27721" x2="11" y2="20.2775" gradientUnits="userSpaceOnUse">
<stop stop-color="#2592F6"/>
<stop offset="1" stop-color="#F38F70"/>
</linearGradient>
<linearGradient id="paint1_linear_486_1084" x1="11" y1="0.27721" x2="11" y2="20.2775" gradientUnits="userSpaceOnUse">
<stop stop-color="#2592F6"/>
<stop offset="1" stop-color="#F38F70"/>
</linearGradient>
<linearGradient id="paint2_linear_486_1084" x1="11" y1="0.27721" x2="11" y2="20.2775" gradientUnits="userSpaceOnUse">
<stop stop-color="#2592F6"/>
<stop offset="1" stop-color="#F38F70"/>
</linearGradient>
<linearGradient id="paint3_linear_486_1084" x1="11" y1="0.27721" x2="11" y2="20.2775" gradientUnits="userSpaceOnUse">
<stop stop-color="#2592F6"/>
<stop offset="1" stop-color="#F38F70"/>
</linearGradient>
<linearGradient id="paint4_linear_486_1084" x1="11" y1="0.27721" x2="11" y2="20.2775" gradientUnits="userSpaceOnUse">
<stop stop-color="#2592F6"/>
<stop offset="1" stop-color="#F38F70"/>
</linearGradient>
<linearGradient id="paint5_linear_486_1084" x1="11" y1="0.27721" x2="11" y2="20.2775" gradientUnits="userSpaceOnUse">
<stop stop-color="#2592F6"/>
<stop offset="1" stop-color="#F38F70"/>
</linearGradient>
<linearGradient id="paint6_linear_486_1084" x1="11" y1="0.27721" x2="11" y2="20.2775" gradientUnits="userSpaceOnUse">
<stop stop-color="#2592F6"/>
<stop offset="1" stop-color="#F38F70"/>
</linearGradient>
<linearGradient id="paint7_linear_486_1084" x1="11" y1="0.27721" x2="11" y2="20.2775" gradientUnits="userSpaceOnUse">
<stop stop-color="#2592F6"/>
<stop offset="1" stop-color="#F38F70"/>
</linearGradient>
<linearGradient id="paint8_linear_486_1084" x1="11" y1="0.27721" x2="11" y2="20.2775" gradientUnits="userSpaceOnUse">
<stop stop-color="#2592F6"/>
<stop offset="1" stop-color="#F38F70"/>
</linearGradient>
</defs>
</svg>
