<svg width="20" height="21" viewBox="0 0 20 21" fill="none" xmlns="http://www.w3.org/2000/svg">
<path fill-rule="evenodd" clip-rule="evenodd" d="M7.1716 7.44892C7.92174 6.69877 8.93916 6.27734 10 6.27734C11.0609 6.27734 12.0783 6.69877 12.8285 7.44892C13.5786 8.19906 14 9.21648 14 10.2773C14 11.3382 13.5786 12.3556 12.8285 13.1058C12.0783 13.8559 11.0609 14.2773 10 14.2773C8.93916 14.2773 7.92174 13.8559 7.1716 13.1058C6.42145 12.3556 6.00003 11.3382 6.00003 10.2773C6.00003 9.21648 6.42145 8.19906 7.1716 7.44892ZM10 8.27734C9.46959 8.27734 8.96089 8.48806 8.58581 8.86313C8.21074 9.2382 8.00003 9.74691 8.00003 10.2773C8.00003 10.8078 8.21074 11.3165 8.58581 11.6916C8.96089 12.0666 9.46959 12.2773 10 12.2773C10.5305 12.2773 11.0392 12.0666 11.4142 11.6916C11.7893 11.3165 12 10.8078 12 10.2773C12 9.74691 11.7893 9.2382 11.4142 8.86313C11.0392 8.48806 10.5305 8.27734 10 8.27734Z" fill="url(#paint0_linear_486_1076)"/>
<path fill-rule="evenodd" clip-rule="evenodd" d="M10 18.2773C10.5523 18.2773 11 18.7251 11 19.2773V19.2873C11 19.8396 10.5523 20.2873 10 20.2873C9.44774 20.2873 9.00003 19.8396 9.00003 19.2873V19.2773C9.00003 18.7251 9.44774 18.2773 10 18.2773Z" fill="url(#paint1_linear_486_1076)"/>
<path fill-rule="evenodd" clip-rule="evenodd" d="M1.00003 6.27734C1.55231 6.27734 2.00003 6.72506 2.00003 7.27734V7.28734C2.00003 7.83963 1.55231 8.28734 1.00003 8.28734C0.447742 8.28734 2.64643e-05 7.83963 2.64643e-05 7.28734V7.27734C2.64643e-05 6.72506 0.447742 6.27734 1.00003 6.27734Z" fill="url(#paint2_linear_486_1076)"/>
<path fill-rule="evenodd" clip-rule="evenodd" d="M19 6.27734C19.5523 6.27734 20 6.72506 20 7.27734V7.28734C20 7.83963 19.5523 8.28734 19 8.28734C18.4477 8.28734 18 7.83963 18 7.28734V7.27734C18 6.72506 18.4477 6.27734 19 6.27734Z" fill="url(#paint3_linear_486_1076)"/>
<path fill-rule="evenodd" clip-rule="evenodd" d="M0.890129 10.2834C1.43907 10.2227 1.93327 10.6185 1.99397 11.1674C2.14229 12.5089 2.62758 13.791 3.40467 14.8945C4.18176 15.998 5.22538 16.8869 6.43841 17.4786C6.9348 17.7207 7.14093 18.3193 6.89881 18.8157C6.6567 19.3121 6.05803 19.5182 5.56164 19.2761C4.04535 18.5366 2.74082 17.4254 1.76946 16.0461C0.798096 14.6667 0.191484 13.0641 0.00608354 11.3872C-0.054611 10.8383 0.34119 10.3441 0.890129 10.2834Z" fill="url(#paint4_linear_486_1076)"/>
<path fill-rule="evenodd" clip-rule="evenodd" d="M19.1099 10.2834C19.6589 10.3441 20.0547 10.8383 19.994 11.3872C19.8086 13.0641 19.202 14.6667 18.2306 16.0461C17.2592 17.4254 15.9547 18.5366 14.4384 19.2761C13.942 19.5182 13.3434 19.3121 13.1012 18.8157C12.8591 18.3193 13.0653 17.7207 13.5616 17.4786C14.7747 16.8869 15.8183 15.998 16.5954 14.8945C17.3725 13.791 17.8578 12.5089 18.0061 11.1674C18.0668 10.6185 18.561 10.2227 19.1099 10.2834Z" fill="url(#paint5_linear_486_1076)"/>
<path fill-rule="evenodd" clip-rule="evenodd" d="M9.90003 2.24226C8.05295 2.24226 6.26277 2.88141 4.83336 4.05122C4.40596 4.401 3.77593 4.33808 3.42615 3.91068C3.07637 3.48328 3.13929 2.85325 3.56669 2.50346C5.35346 1.04119 7.59118 0.242256 9.90003 0.242256C12.2089 0.242256 14.4466 1.04119 16.2334 2.50346C16.6608 2.85325 16.7237 3.48328 16.3739 3.91068C16.0241 4.33808 15.3941 4.401 14.9667 4.05122C13.5373 2.88141 11.7471 2.24226 9.90003 2.24226Z" fill="url(#paint6_linear_486_1076)"/>
<defs>
<linearGradient id="paint0_linear_486_1076" x1="10" y1="0.242256" x2="10" y2="20.2873" gradientUnits="userSpaceOnUse">
<stop stop-color="#2592F6"/>
<stop offset="1" stop-color="#F38F70"/>
</linearGradient>
<linearGradient id="paint1_linear_486_1076" x1="10" y1="0.242256" x2="10" y2="20.2873" gradientUnits="userSpaceOnUse">
<stop stop-color="#2592F6"/>
<stop offset="1" stop-color="#F38F70"/>
</linearGradient>
<linearGradient id="paint2_linear_486_1076" x1="10" y1="0.242256" x2="10" y2="20.2873" gradientUnits="userSpaceOnUse">
<stop stop-color="#2592F6"/>
<stop offset="1" stop-color="#F38F70"/>
</linearGradient>
<linearGradient id="paint3_linear_486_1076" x1="10" y1="0.242256" x2="10" y2="20.2873" gradientUnits="userSpaceOnUse">
<stop stop-color="#2592F6"/>
<stop offset="1" stop-color="#F38F70"/>
</linearGradient>
<linearGradient id="paint4_linear_486_1076" x1="10" y1="0.242256" x2="10" y2="20.2873" gradientUnits="userSpaceOnUse">
<stop stop-color="#2592F6"/>
<stop offset="1" stop-color="#F38F70"/>
</linearGradient>
<linearGradient id="paint5_linear_486_1076" x1="10" y1="0.242256" x2="10" y2="20.2873" gradientUnits="userSpaceOnUse">
<stop stop-color="#2592F6"/>
<stop offset="1" stop-color="#F38F70"/>
</linearGradient>
<linearGradient id="paint6_linear_486_1076" x1="10" y1="0.242256" x2="10" y2="20.2873" gradientUnits="userSpaceOnUse">
<stop stop-color="#2592F6"/>
<stop offset="1" stop-color="#F38F70"/>
</linearGradient>
</defs>
</svg>
