<svg width="16" height="16" viewBox="0 0 16 16" fill="none" xmlns="http://www.w3.org/2000/svg">
<path fill-rule="evenodd" clip-rule="evenodd" d="M8.00001 4C8.3682 4 8.66668 4.29848 8.66668 4.66667V7.72386L9.80475 8.86193C10.0651 9.12228 10.0651 9.54439 9.80475 9.80474C9.5444 10.0651 9.12229 10.0651 8.86194 9.80474L7.52861 8.4714C7.40358 8.34638 7.33334 8.17681 7.33334 8V4.66667C7.33334 4.29848 7.63182 4 8.00001 4Z" fill="#2592F6"/>
<path fill-rule="evenodd" clip-rule="evenodd" d="M11.0049 10.0865C11.2139 9.9682 11.4704 9.97143 11.6763 10.095L15.0097 12.095C15.2105 12.2155 15.3333 12.4325 15.3333 12.6667C15.3333 12.9008 15.2105 13.1178 15.0097 13.2383L11.6763 15.2383C11.4704 15.3619 11.2139 15.3651 11.0049 15.2468C10.7959 15.1285 10.6667 14.9068 10.6667 14.6667V10.6667C10.6667 10.4265 10.7959 10.2049 11.0049 10.0865ZM12 11.8441V13.4892L13.3709 12.6667L12 11.8441Z" fill="#2592F6"/>
<path fill-rule="evenodd" clip-rule="evenodd" d="M10.5701 3.32693C9.58646 2.78608 8.45726 2.56938 7.34329 2.70769C6.22933 2.84599 5.1874 3.33225 4.36589 4.09721C3.54439 4.86218 2.98519 5.86684 2.76793 6.96813C2.55067 8.06943 2.68643 9.21119 3.15587 10.2308C3.62532 11.2505 4.40452 12.096 5.3825 12.647C6.36048 13.198 7.48737 13.4264 8.60271 13.2996C8.96854 13.258 9.29882 13.5209 9.3404 13.8867C9.38198 14.2525 9.11912 14.5828 8.75328 14.6244C7.35911 14.7829 5.95049 14.4974 4.72802 13.8086C3.50554 13.1199 2.53155 12.063 1.94474 10.7884C1.35793 9.51389 1.18823 8.08669 1.45981 6.71007C1.73138 5.33346 2.43038 4.07763 3.45727 3.12142C4.48415 2.16522 5.78656 1.55739 7.17901 1.38451C8.57147 1.21163 9.98297 1.48251 11.2125 2.15856C12.442 2.83462 13.4269 3.88138 14.0269 5.14979C14.6269 6.4182 14.8113 7.84357 14.554 9.22292C14.4865 9.58487 14.1384 9.82355 13.7764 9.75603C13.4145 9.68851 13.1758 9.34036 13.2433 8.97841C13.4491 7.87493 13.3016 6.73463 12.8216 5.71991C12.3416 4.70518 11.5537 3.86777 10.5701 3.32693Z" fill="#2592F6"/>
</svg>
