<svg width="16" height="16" viewBox="0 0 16 16" fill="none" xmlns="http://www.w3.org/2000/svg">
<path fill-rule="evenodd" clip-rule="evenodd" d="M4.66668 4C4.13624 4 3.62754 4.21071 3.25246 4.58578C2.87739 4.96086 2.66668 5.46956 2.66668 6V10C2.66668 10.5304 2.87739 11.0391 3.25246 11.4142C3.62754 11.7893 4.13624 12 4.66668 12H11.3333C11.8638 12 12.3725 11.7893 12.7476 11.4142C13.1226 11.0391 13.3333 10.5304 13.3333 10V6C13.3333 5.46956 13.1226 4.96086 12.7476 4.58578C12.3725 4.21071 11.8638 4 11.3333 4H4.66668ZM2.30965 3.64297C2.93478 3.01785 3.78262 2.66666 4.66668 2.66666H11.3333C12.2174 2.66666 13.0652 3.01785 13.6904 3.64297C14.3155 4.2681 14.6667 5.11594 14.6667 6V10C14.6667 10.8841 14.3155 11.7319 13.6904 12.357C13.0652 12.9821 12.2174 13.3333 11.3333 13.3333H4.66668C3.78262 13.3333 2.93477 12.9821 2.30965 12.357C1.68453 11.7319 1.33334 10.8841 1.33334 10V6C1.33334 5.11594 1.68453 4.2681 2.30965 3.64297Z" fill="#2592F6"/>
<path fill-rule="evenodd" clip-rule="evenodd" d="M6.3382 5.41987C6.54721 5.30153 6.80371 5.30477 7.00966 5.42834L10.343 7.42834C10.5438 7.54882 10.6667 7.76583 10.6667 8C10.6667 8.23418 10.5438 8.45118 10.343 8.57166L7.00966 10.5717C6.80371 10.6952 6.54721 10.6985 6.3382 10.5801C6.1292 10.4618 6 10.2402 6 10V6C6 5.75982 6.1292 5.53821 6.3382 5.41987ZM7.33333 7.17746V8.82254L8.70423 8L7.33333 7.17746Z" fill="#2592F6"/>
</svg>
